<?xml version="1.0" encoding="UTF-8" standalone="no"?>
<!DOCTYPE svg PUBLIC "-//W3C//DTD SVG 1.1//EN"
 "http://www.w3.org/Graphics/SVG/1.1/DTD/svg11.dtd">
<!-- Generated by graphviz version 2.40.1 (20161225.0304)
 -->
<!-- Title: dependencies Pages: 1 -->
<svg width="504pt" height="211pt"
 viewBox="0.00 0.00 504.00 211.00" xmlns="http://www.w3.org/2000/svg" xmlns:xlink="http://www.w3.org/1999/xlink">
<g id="graph0" class="graph" transform="scale(1 1) rotate(0) translate(4 207)">
<title>dependencies</title>
<polygon fill="#ffffff" stroke="transparent" points="-4,4 -4,-207 500,-207 500,4 -4,4"/>
<text text-anchor="start" x="227.0091" y="-42.4" font-family="sans-serif" font-weight="bold" font-size="14.00" fill="#000000">Legend</text>
<polygon fill="#ffffb3" stroke="transparent" points="14,-10 14,-30 34,-30 34,-10 14,-10"/>
<text text-anchor="start" x="37.629" y="-15.4" font-family="sans-serif" font-size="14.00" fill="#000000"> &#160;Declarations</text>
<polygon fill="#8dd3c7" stroke="transparent" points="127,-10 127,-30 147,-30 147,-10 127,-10"/>
<text text-anchor="start" x="150.7251" y="-15.4" font-family="sans-serif" font-size="14.00" fill="#000000"> &#160;Module</text>
<polygon fill="#80b1d3" stroke="transparent" points="213,-10 213,-30 233,-30 233,-10 213,-10"/>
<text text-anchor="start" x="236.7812" y="-15.4" font-family="sans-serif" font-size="14.00" fill="#000000"> &#160;Bootstrap</text>
<polygon fill="#fdb462" stroke="transparent" points="310,-10 310,-30 330,-30 330,-10 310,-10"/>
<text text-anchor="start" x="333.6732" y="-15.4" font-family="sans-serif" font-size="14.00" fill="#000000"> &#160;Providers</text>
<polygon fill="#fb8072" stroke="transparent" points="406,-10 406,-30 426,-30 426,-10 406,-10"/>
<text text-anchor="start" x="429.7258" y="-15.4" font-family="sans-serif" font-size="14.00" fill="#000000"> &#160;Exports</text>
<g id="clust1" class="cluster">
<title>cluster_ApplicationModule</title>
<polygon fill="none" stroke="#000000" stroke-dasharray="1,5" points="73.5,-70 73.5,-195 422.5,-195 422.5,-70 73.5,-70"/>
</g>
<g id="clust3" class="cluster">
<title>cluster_ApplicationModule_imports</title>
<polygon fill="none" stroke="#000000" points="81.5,-78 81.5,-130 414.5,-130 414.5,-78 81.5,-78"/>
</g>
<!-- AnimalsModule -->
<g id="node1" class="node">
<title>AnimalsModule</title>
<polygon fill="#8dd3c7" stroke="#000000" points="406.9874,-122 403.9874,-126 382.9874,-126 379.9874,-122 300.0126,-122 300.0126,-86 406.9874,-86 406.9874,-122"/>
<text text-anchor="middle" x="353.5" y="-99.8" font-family="Times,serif" font-size="14.00" fill="#000000">AnimalsModule</text>
</g>
<!-- ApplicationModule -->
<g id="node4" class="node">
<title>ApplicationModule</title>
<polygon fill="#8dd3c7" stroke="#000000" points="302.1485,-187 299.1485,-191 278.1485,-191 275.1485,-187 176.8515,-187 176.8515,-151 302.1485,-151 302.1485,-187"/>
<text text-anchor="middle" x="239.5" y="-164.8" font-family="Times,serif" font-size="14.00" fill="#000000">ApplicationModule</text>
</g>
<!-- AnimalsModule&#45;&gt;ApplicationModule -->
<g id="edge1" class="edge">
<title>AnimalsModule&#45;&gt;ApplicationModule</title>
<path fill="none" stroke="#000000" d="M299.8367,-104C294.4186,-104 290.8622,-104 290.8622,-104 290.8622,-104 290.8622,-140.8939 290.8622,-140.8939"/>
<polygon fill="#000000" stroke="#000000" points="287.3623,-140.8938 290.8622,-150.8939 294.3623,-140.8939 287.3623,-140.8938"/>
</g>
<!-- CatsModule -->
<g id="node2" class="node">
<title>CatsModule</title>
<polygon fill="#8dd3c7" stroke="#000000" points="281.9373,-122 278.9373,-126 257.9373,-126 254.9373,-122 197.0627,-122 197.0627,-86 281.9373,-86 281.9373,-122"/>
<text text-anchor="middle" x="239.5" y="-99.8" font-family="Times,serif" font-size="14.00" fill="#000000">CatsModule</text>
</g>
<!-- CatsModule&#45;&gt;ApplicationModule -->
<g id="edge2" class="edge">
<title>CatsModule&#45;&gt;ApplicationModule</title>
<path fill="none" stroke="#000000" d="M239.5,-122.1061C239.5,-122.1061 239.5,-140.991 239.5,-140.991"/>
<polygon fill="#000000" stroke="#000000" points="236.0001,-140.9909 239.5,-150.991 243.0001,-140.991 236.0001,-140.9909"/>
</g>
<!-- DogsModule -->
<g id="node3" class="node">
<title>DogsModule</title>
<polygon fill="#8dd3c7" stroke="#000000" points="179.1011,-122 176.1011,-126 155.1011,-126 152.1011,-122 89.8989,-122 89.8989,-86 179.1011,-86 179.1011,-122"/>
<text text-anchor="middle" x="134.5" y="-99.8" font-family="Times,serif" font-size="14.00" fill="#000000">DogsModule</text>
</g>
<!-- DogsModule&#45;&gt;ApplicationModule -->
<g id="edge3" class="edge">
<title>DogsModule&#45;&gt;ApplicationModule</title>
<path fill="none" stroke="#000000" d="M179.3043,-104C184.5992,-104 188.1662,-104 188.1662,-104 188.1662,-104 188.1662,-140.8939 188.1662,-140.8939"/>
<polygon fill="#000000" stroke="#000000" points="184.6663,-140.8938 188.1662,-150.8939 191.6663,-140.8939 184.6663,-140.8938"/>
</g>
</g>
</svg>
