<?xml version="1.0" encoding="UTF-8" standalone="no"?>
<!DOCTYPE svg PUBLIC "-//W3C//DTD SVG 1.1//EN"
 "http://www.w3.org/Graphics/SVG/1.1/DTD/svg11.dtd">
<!-- Generated by graphviz version 2.40.1 (20161225.0304)
 -->
<!-- Title: dependencies Pages: 1 -->
<svg width="504pt" height="211pt"
 viewBox="0.00 0.00 504.00 211.00" xmlns="http://www.w3.org/2000/svg" xmlns:xlink="http://www.w3.org/1999/xlink">
<g id="graph0" class="graph" transform="scale(1 1) rotate(0) translate(4 207)">
<title>dependencies</title>
<polygon fill="#ffffff" stroke="transparent" points="-4,4 -4,-207 500,-207 500,4 -4,4"/>
<text text-anchor="start" x="227.0091" y="-42.4" font-family="sans-serif" font-weight="bold" font-size="14.00" fill="#000000">Legend</text>
<polygon fill="#ffffb3" stroke="transparent" points="14,-10 14,-30 34,-30 34,-10 14,-10"/>
<text text-anchor="start" x="37.629" y="-15.4" font-family="sans-serif" font-size="14.00" fill="#000000"> &#160;Declarations</text>
<polygon fill="#8dd3c7" stroke="transparent" points="127,-10 127,-30 147,-30 147,-10 127,-10"/>
<text text-anchor="start" x="150.7251" y="-15.4" font-family="sans-serif" font-size="14.00" fill="#000000"> &#160;Module</text>
<polygon fill="#80b1d3" stroke="transparent" points="213,-10 213,-30 233,-30 233,-10 213,-10"/>
<text text-anchor="start" x="236.7812" y="-15.4" font-family="sans-serif" font-size="14.00" fill="#000000"> &#160;Bootstrap</text>
<polygon fill="#fdb462" stroke="transparent" points="310,-10 310,-30 330,-30 330,-10 310,-10"/>
<text text-anchor="start" x="333.6732" y="-15.4" font-family="sans-serif" font-size="14.00" fill="#000000"> &#160;Providers</text>
<polygon fill="#fb8072" stroke="transparent" points="406,-10 406,-30 426,-30 426,-10 406,-10"/>
<text text-anchor="start" x="429.7258" y="-15.4" font-family="sans-serif" font-size="14.00" fill="#000000"> &#160;Exports</text>
<g id="clust1" class="cluster">
<title>cluster_AnimalsModule</title>
<polygon fill="none" stroke="#000000" stroke-dasharray="1,5" points="38.5,-70 38.5,-195 457.5,-195 457.5,-70 38.5,-70"/>
</g>
<g id="clust3" class="cluster">
<title>cluster_AnimalsModule_imports</title>
<polygon fill="none" stroke="#000000" points="323.5,-78 323.5,-130 449.5,-130 449.5,-78 323.5,-78"/>
</g>
<g id="clust6" class="cluster">
<title>cluster_AnimalsModule_providers</title>
<polygon fill="none" stroke="#000000" points="46.5,-78 46.5,-130 315.5,-130 315.5,-78 46.5,-78"/>
</g>
<!-- DatabaseModule -->
<g id="node1" class="node">
<title>DatabaseModule</title>
<polygon fill="#8dd3c7" stroke="#000000" points="441.8501,-122 438.8501,-126 417.8501,-126 414.8501,-122 331.1499,-122 331.1499,-86 441.8501,-86 441.8501,-122"/>
<text text-anchor="middle" x="386.5" y="-99.8" font-family="Times,serif" font-size="14.00" fill="#000000">DatabaseModule</text>
</g>
<!-- AnimalsModule -->
<g id="node2" class="node">
<title>AnimalsModule</title>
<polygon fill="#8dd3c7" stroke="#000000" points="303.9874,-187 300.9874,-191 279.9874,-191 276.9874,-187 197.0126,-187 197.0126,-151 303.9874,-151 303.9874,-187"/>
<text text-anchor="middle" x="250.5" y="-164.8" font-family="Times,serif" font-size="14.00" fill="#000000">AnimalsModule</text>
</g>
<!-- DatabaseModule&#45;&gt;AnimalsModule -->
<g id="edge1" class="edge">
<title>DatabaseModule&#45;&gt;AnimalsModule</title>
<path fill="none" stroke="#000000" d="M386.5,-122.1061C386.5,-141.3391 386.5,-169 386.5,-169 386.5,-169 314.2508,-169 314.2508,-169"/>
<polygon fill="#000000" stroke="#000000" points="314.2508,-165.5001 304.2508,-169 314.2508,-172.5001 314.2508,-165.5001"/>
</g>
<!-- CatsService -->
<g id="node3" class="node">
<title>CatsService</title>
<ellipse fill="#fdb462" stroke="#000000" cx="250.5" cy="-104" rx="57.3166" ry="18"/>
<text text-anchor="middle" x="250.5" y="-99.8" font-family="Times,serif" font-size="14.00" fill="#000000">CatsService</text>
</g>
<!-- CatsService&#45;&gt;AnimalsModule -->
<g id="edge2" class="edge">
<title>CatsService&#45;&gt;AnimalsModule</title>
<path fill="none" stroke="#000000" d="M250.5,-122.1061C250.5,-122.1061 250.5,-140.991 250.5,-140.991"/>
<polygon fill="#000000" stroke="#000000" points="247.0001,-140.9909 250.5,-150.991 254.0001,-140.991 247.0001,-140.9909"/>
</g>
<!-- DogsService -->
<g id="node4" class="node">
<title>DogsService</title>
<ellipse fill="#fdb462" stroke="#000000" cx="114.5" cy="-104" rx="60.2518" ry="18"/>
<text text-anchor="middle" x="114.5" y="-99.8" font-family="Times,serif" font-size="14.00" fill="#000000">DogsService</text>
</g>
<!-- DogsService&#45;&gt;AnimalsModule -->
<g id="edge3" class="edge">
<title>DogsService&#45;&gt;AnimalsModule</title>
<path fill="none" stroke="#000000" d="M114.5,-122.1061C114.5,-141.3391 114.5,-169 114.5,-169 114.5,-169 186.7492,-169 186.7492,-169"/>
<polygon fill="#000000" stroke="#000000" points="186.7492,-172.5001 196.7492,-169 186.7492,-165.5001 186.7492,-172.5001"/>
</g>
</g>
</svg>
